<?xml version="1.0" encoding="iso-8859-1"?>
<!-- Generator: Adobe Illustrator 19.0.0, SVG Export Plug-In . SVG Version: 6.00 Build 0)  -->
<svg version="1.1" fill='rgb(255,0,0)' id="Capa_1" xmlns="http://www.w3.org/2000/svg" xmlns:xlink="http://www.w3.org/1999/xlink" x="0px" y="0px"
	 viewBox="0 0 512 512" style="enable-background:new 0 0 512 512;" xml:space="preserve">
<g>
	<g>
		<path d="M503.561,212.511l-30.398-14.786c-5.069-18.92-12.604-37.067-22.469-54.11l10.455-31.366
			c1.796-5.39,0.394-11.332-3.624-15.35L415.1,54.475c-4.017-4.017-9.958-5.42-15.35-3.624l-31.365,10.455
			c-17.044-9.866-35.188-17.4-54.109-22.469L299.489,8.439C296.978,3.277,291.741,0,286,0h-60c-5.741,0-10.978,3.277-13.489,8.439
			l-14.786,30.398c-18.922,5.069-37.066,12.603-54.109,22.469L112.25,50.851c-5.39-1.796-11.332-0.394-15.35,3.624L54.475,96.9
			c-4.018,4.017-5.42,9.96-3.624,15.35l10.456,31.365c-9.865,17.043-17.4,35.189-22.469,54.109L8.439,212.511
			C3.276,215.022,0,220.259,0,226v60c0,5.741,3.276,10.978,8.439,13.489l30.398,14.785c5.069,18.92,12.604,37.067,22.469,54.109
			l-10.455,31.364c-1.797,5.39-0.394,11.333,3.623,15.35L96.9,457.525c4.018,4.018,9.961,5.419,15.351,3.624l31.366-10.456
			c17.043,9.866,35.187,17.4,54.109,22.469l14.786,30.398c2.51,5.164,7.747,8.44,13.488,8.44h60c5.741,0,10.978-3.276,13.489-8.439
			l14.786-30.398c18.92-5.069,37.066-12.604,54.109-22.469l31.365,10.456c5.392,1.797,11.333,0.394,15.351-3.624l42.425-42.427
			c4.017-4.018,5.42-9.96,3.624-15.35l-10.455-31.364c9.865-17.043,17.4-35.189,22.469-54.109l30.398-14.785
			c5.163-2.513,8.439-7.75,8.439-13.491v-60C512,220.259,508.724,215.022,503.561,212.511z M482,276.616l-28.247,13.739
			c-4.063,1.976-7.02,5.679-8.046,10.08c-4.8,20.567-12.93,40.159-24.164,58.232c-2.355,3.789-2.901,8.43-1.49,12.662l9.704,29.112
			l-29.315,29.316l-29.113-9.705c-4.232-1.411-8.873-0.865-12.662,1.491c-18.073,11.234-37.666,19.364-58.232,24.164
			c-4.4,1.027-8.104,3.983-10.08,8.046L276.616,482h-41.231l-13.739-28.247c-1.976-4.063-5.679-7.02-10.079-8.046
			c-20.567-4.8-40.159-12.931-58.231-24.164c-3.789-2.355-8.43-2.9-12.663-1.491l-29.113,9.705L82.243,400.44l9.705-29.112
			c1.411-4.232,0.865-8.874-1.491-12.663c-11.234-18.073-19.364-37.664-24.164-58.231c-1.027-4.4-3.983-8.103-8.046-10.08
			L30,276.616v-41.231l28.247-13.739c4.063-1.977,7.02-5.679,8.046-10.08c4.8-20.567,12.931-40.159,24.164-58.232
			c2.355-3.789,2.902-8.43,1.491-12.662l-9.705-29.114l29.315-29.315l29.114,9.705c4.232,1.411,8.874,0.864,12.663-1.491
			c18.071-11.233,37.663-19.363,58.231-24.164c4.4-1.027,8.103-3.983,10.079-8.046L235.384,30h41.231l13.739,28.246
			c1.976,4.063,5.679,7.019,10.079,8.046c20.567,4.801,40.16,12.931,58.232,24.164c3.788,2.355,8.429,2.902,12.662,1.491
			l29.113-9.705l29.315,29.315l-9.705,29.114c-1.411,4.232-0.864,8.873,1.491,12.662c11.234,18.073,19.364,37.665,24.164,58.232
			c1.027,4.4,3.983,8.103,8.046,10.08L482,235.384V276.616z"/>
	</g>
</g>
<g>
	<g>
		<path d="M256,91c-90.981,0-165,74.019-165,165s74.019,165,165,165s165-74.019,165-165S346.981,91,256,91z M286,387.635
			c-9.652,2.199-19.692,3.365-30,3.365c-10.308,0-20.348-1.166-30-3.365V301h60V387.635z M235.271,271L256,229.541L276.729,271
			H235.271z M316,376.909V286c0-2.336-0.628-4.798-1.583-6.708l-45-90C266.875,184.21,261.682,181,256,181
			s-10.875,3.21-13.417,8.292l-45,90c-0.054,0.108-0.093,0.219-0.144,0.328c-0.985,2.089-1.44,4.39-1.44,6.38v90.909
			c-44.413-22.129-75-68.01-75-120.909c0-74.439,60.561-135,135-135s135,60.561,135,135C391,308.898,360.413,354.78,316,376.909z"/>
	</g>
</g>
<g>
</g>
<g>
</g>
<g>
</g>
<g>
</g>
<g>
</g>
<g>
</g>
<g>
</g>
<g>
</g>
<g>
</g>
<g>
</g>
<g>
</g>
<g>
</g>
<g>
</g>
<g>
</g>
<g>
</g>
</svg>
